
        <svg xmlns="http://www.w3.org/2000/svg" xmlns:xlink="http://www.w3.org/1999/xlink" version="1.1" width="3162.208309618669" 
        height="1000.1015695219921" viewBox="0 0 3162.208309618669 1000.1015695219921">
			
			<g transform="scale(8.11041548093341) translate(10, 10)">
				<defs id="SvgjsDefs1093"></defs><g id="SvgjsG1094" featureKey="S6ay6y-0" transform="matrix(1.1461176999260136,0,0,1.1461176999260136,-11.252952836024466,-5.730702174023524)" fill="#1a1a1a"><g xmlns="http://www.w3.org/2000/svg"><path d="M75.51,70.217c3.006-11.689,18.702-17.477,13.692-41.3C84.193,5.095,56.08,2.666,41.558,6.431   c-15.052,3.902-27.008,19.893-23.039,33.27c0.307,1.034,0.125,2.14-0.46,3.045c-1.836,2.838-6.764,9.031-8.095,12.664   c-0.48,1.31,0.269,2.75,1.618,3.108c0.423,0.112,3.02,1.137,3.357,1.244c3.464,1.103,2.796,8.767,2.796,15.797   c0,7.347,7.792,6.345,10.353,5.789c2.56-0.557,8.349-1.074,8.349,5.9c0,0.931,0.028,1.682,0.07,2.285   c0.097,1.392,1.001,2.597,2.303,3.099c5.147,1.982,20.054,5.075,38.062-1.364c1.057-0.378,1.542-1.603,1.039-2.605   C76.212,85.284,73.275,78.911,75.51,70.217z M69.733,59.247c-4.028,2.097-7.15-0.334-8.721-2.081   c-0.887,0.392-1.866,0.614-2.898,0.614c-1.684,0-3.229-0.584-4.454-1.555c-0.044,0.148-5.477,1.397-6.426-2.387   c0.087,0.002,0.171,0.011,0.259,0.011c0.091,0,0.184-0.001,0.276-0.004c3.364-0.096,6.6-1.919,9.619-5.419   c0.507-0.587,0.441-1.474-0.146-1.98c-0.587-0.507-1.474-0.441-1.98,0.146c-2.471,2.864-5.007,4.36-7.539,4.445   c-0.75,0.025-1.445-0.082-2.072-0.256c-0.176-0.056-0.346-0.104-0.528-0.167c-0.186-0.064-0.353-0.139-0.525-0.21   c-1.387-0.612-2.239-1.446-2.259-1.466c-0.035-0.036-0.075-0.063-0.113-0.095c-1.879-1.953-1.828-4.627-1.5-6.411   c-6.716,0.746-9.882-1.73-11.376-4.139c0.598-0.075,1.205-0.209,1.804-0.441c1.818-0.707,3.182-2.085,4.053-4.094   c0.308-0.711-0.018-1.538-0.729-1.846c-0.713-0.308-1.538,0.018-1.846,0.729c-0.568,1.31-1.38,2.157-2.483,2.589   c-0.994,0.391-2.081,0.388-3.001,0.257c-2.159-1.066-3.648-3.281-3.648-5.852c0-3.417,2.623-6.217,5.964-6.507   c-0.363-0.633-0.527-1.396-0.392-2.205c0.233-1.396,1.383-2.515,2.784-2.713c0.115-0.016,0.225-0.012,0.338-0.017   c0.437,1.326,1.329,3.145,3.054,3.867c0.489,0.205,0.996,0.306,1.52,0.306c1.093,0,2.262-0.442,3.492-1.325   c0.63-0.452,0.774-1.329,0.322-1.958c-0.452-0.631-1.328-0.776-1.959-0.322c-0.67,0.48-1.61,0.991-2.288,0.711   c-0.763-0.317-1.298-1.531-1.569-2.47c0.975-1.729,2.824-2.899,4.951-2.899c1.16,0,2.238,0.349,3.137,0.945   c0.799-2.175,2.883-3.729,5.335-3.729c1.344,0,2.577,0.469,3.55,1.248c1.026-1.484,2.739-2.458,4.68-2.458   c1.907,0,3.591,0.942,4.623,2.382c0.725-0.434,1.571-0.688,2.478-0.688c2.08,0,3.849,1.314,4.534,3.156   c0.649-0.412,1.418-0.655,2.244-0.655c2.317,0,4.196,1.878,4.196,4.196c0,0.089-0.008,0.176-0.013,0.264   c0.563-0.253,1.215-0.343,1.901-0.188c1.097,0.248,1.983,1.133,2.231,2.23c0.155,0.685,0.067,1.336-0.185,1.898   c0.061-0.003,0.12-0.009,0.182-0.009c2.05,0,3.712,1.662,3.712,3.712c0,0.693-0.203,1.334-0.534,1.889   c-2.354-0.352-5.258,0.245-7.536,3.488c-0.445,0.635-0.293,1.51,0.342,1.955c0.245,0.172,0.527,0.255,0.805,0.255   c0.442,0,0.877-0.208,1.15-0.597c2.788-3.97,6.479-1.845,6.896-1.586c0.028,0.018,0.058,0.028,0.086,0.043   c1.025,1.739,1.615,3.765,1.615,5.929c0,3.557-1.589,6.741-4.094,8.886c0.265,0.905,0.312,1.904,0.028,2.947   c-0.512,1.878-2.037,3.358-3.927,3.824c-1.104,0.272-2.152,0.175-3.09-0.157C73.756,55.473,72.592,57.759,69.733,59.247z"></path><path d="M48.064,28.273c-2.269,2.466-3.017,6.237-1.861,9.384c0.208,0.568,0.746,0.92,1.317,0.92c0.161,0,0.324-0.028,0.484-0.086   c0.728-0.268,1.101-1.074,0.833-1.802c-0.803-2.184-0.283-4.802,1.292-6.515c0.525-0.571,0.488-1.458-0.082-1.983   C49.476,27.666,48.588,27.703,48.064,28.273z"></path><path d="M74.513,23.491c-1.802-3.272-4.705-4.198-7.379-4.126c-0.209-0.969-0.619-2.378-1.39-3.617   c-0.409-0.658-1.275-0.86-1.933-0.45c-0.658,0.41-0.859,1.275-0.45,1.933c0.519,0.835,0.822,1.82,0.99,2.549   c-0.775,0.211-1.472,0.477-2.037,0.753c-0.696,0.341-0.985,1.182-0.644,1.878c0.34,0.696,1.18,0.985,1.878,0.644   c0.241-0.119,5.952-2.846,8.506,1.791c0.256,0.464,0.735,0.727,1.231,0.727c0.229,0,0.461-0.056,0.676-0.174   C74.64,25.024,74.887,24.17,74.513,23.491z"></path><path d="M61.762,38.571c0.701,2.681,2.588,4.335,5.178,4.539c0.038,0.003,0.075,0.004,0.112,0.004c0.725,0,1.34-0.558,1.398-1.293   c0.061-0.773-0.516-1.449-1.289-1.51c-0.839-0.066-1.474-0.37-1.944-0.928c-0.822-0.979-0.928-2.491-0.917-2.882   c0.052-0.23,0.047-0.474-0.023-0.711c-0.175-0.589-0.714-0.996-1.328-1.004c-4.839-0.058-5.722-4.645-5.759-4.848   c-0.132-0.76-0.853-1.273-1.617-1.144c-0.764,0.129-1.28,0.853-1.15,1.618c0.379,2.248,2.348,6.347,7.114,7.071   C61.584,37.816,61.659,38.179,61.762,38.571z"></path><path d="M52.023,14.561c-0.735,0.245-1.133,1.04-0.888,1.775c0.548,1.645,0.498,2.943-0.156,3.968   c-1.304,2.047-4.614,2.46-4.68,2.468c-0.769,0.086-1.323,0.779-1.239,1.548c0.079,0.719,0.687,1.251,1.393,1.251   c0.051,0,0.103-0.003,0.155-0.008c0.191-0.021,4.687-0.548,6.73-3.736c1.129-1.762,1.284-3.908,0.461-6.379   C53.553,14.714,52.761,14.316,52.023,14.561z"></path><path d="M69.834,53.343c-1.959,0.843-3.582,0.974-4.824,0.386c-1.646-0.78-2.212-2.643-2.229-2.7   c-0.206-0.744-0.975-1.179-1.72-0.979c-0.748,0.204-1.19,0.975-0.986,1.723c0.034,0.126,0.875,3.115,3.694,4.475   c0.904,0.436,1.889,0.654,2.95,0.654c1.299,0,2.711-0.327,4.226-0.979c0.712-0.307,1.04-1.133,0.734-1.845   C71.371,53.365,70.545,53.036,69.834,53.343z"></path></g></g><g id="SvgjsG1095" featureKey="j5pGhi-0" transform="matrix(2.6710238399597532,0,0,2.6710238399597532,108.6872076203377,11.644880800201234)" fill="#1a1a1a"><path d="M17.998 20 l-2.9199 0 l-0.92773 -10.635 l-3.5742 10.635 l-1.8945 0 l-3.5742 -10.635 l-0.9375 10.635 l-2.9297 0 l1.1816 -14.111 l4.1797 0 l3.0078 8.8574 l3.0469 -8.8574 l4.1797 0 z M27.26558125 9.961 l2.8809 0 l-6.1914 14.766 l-2.8516 0 l2.2949 -5.1367 l-4.1309 -9.6289 l3.0664 0 l2.3926 6.6016 z M37.55858125 9.766 c2.4121 0 3.7402 1.25 3.7402 3.4766 l0 6.7578 l-2.8223 0 l0 -6.1523 c0 -1.3379 -0.83008 -1.8262 -1.7969 -1.8262 c-1.1621 0 -2.2168 0.58594 -2.2363 2.4414 l0 5.5371 l-2.8125 0 l0 -10.039 l2.8125 0 l0 1.1133 c0.70313 -0.83008 1.7871 -1.3086 3.1152 -1.3086 z M51.142559375 5 l2.8125 0 l0 15 l-2.666 0 l-0.068359 -1.3086 c-0.57617 0.98633 -1.7871 1.543 -3.1543 1.543 c-2.6465 0 -4.834 -1.9531 -4.834 -5.2344 s2.1973 -5.2344 4.834 -5.2344 c1.3184 0 2.4805 0.49805 3.0762 1.4063 l0 -6.1719 z M48.710959375 17.9004 c1.4941 0 2.6563 -1.1426 2.6563 -2.9004 s-1.1719 -2.9102 -2.6563 -2.9102 c-1.4941 0 -2.666 1.1035 -2.666 2.9102 c0 1.7969 1.1719 2.9004 2.666 2.9004 z M73.40815625 20 l-2.9199 0 l-0.92773 -10.635 l-3.5742 10.635 l-1.8945 0 l-3.5742 -10.635 l-0.9375 10.635 l-2.9297 0 l1.1816 -14.111 l4.1797 0 l3.0078 8.8574 l3.0469 -8.8574 l4.1797 0 z M84.3359375 17.2754 c0 1.2305 0.11719 2.0117 0.24414 2.4512 l0 0.27344 l-2.627 0 l-0.22461 -1.0938 c-0.75195 0.9082 -2.0508 1.2891 -3.2227 1.2891 c-1.582 0 -3.125 -0.70313 -3.125 -2.793 c0 -2.0801 1.5527 -2.7832 3.6523 -3.2422 l1.6504 -0.37109 c0.71289 -0.16602 0.9668 -0.41016 0.9668 -0.82031 c0 -0.98633 -0.89844 -1.2598 -1.6895 -1.2598 c-1.0156 0 -1.7871 0.40039 -1.9629 1.5332 l-2.4902 -0.44922 c0.41992 -2.0801 1.9434 -3.0273 4.6094 -3.0273 c2.0117 0 4.2188 0.5957 4.2188 3.623 l0 3.8867 z M79.3847375 18.291 c1.3379 0 2.4121 -0.88867 2.4121 -2.8809 l-2.3828 0.67383 c-0.78125 0.18555 -1.3477 0.45898 -1.3477 1.1328 c0 0.72266 0.5957 1.0742 1.3184 1.0742 z M92.959034375 9.766 c2.6465 0 4.834 1.9434 4.834 5.2344 s-2.1875 5.2344 -4.834 5.2344 c-1.3086 0 -2.4805 -0.50781 -3.0762 -1.4258 l0 6.0742 l-2.8125 0 l0 -14.922 l2.666 0 l0.078125 1.3477 c0.55664 -0.99609 1.7773 -1.543 3.1445 -1.543 z M92.324234375 17.9004 c1.4746 0 2.6563 -1.0742 2.6563 -2.9004 s-1.1816 -2.9004 -2.6563 -2.9004 c-1.5039 0 -2.6758 1.1426 -2.6758 2.9004 s1.1719 2.9004 2.6758 2.9004 z"></path></g>
			</g>
		</svg>
	